<svg width="23" height="17" viewBox="0 0 23 17" fill="none" xmlns="http://www.w3.org/2000/svg">
<path d="M11.4998 0.6875C6.2915 0.6875 1.84359 3.92708 0.0415039 8.5C1.84359 13.0729 6.2915 16.3125 11.4998 16.3125C16.7082 16.3125 21.1561 13.0729 22.9582 8.5C21.1561 3.92708 16.7082 0.6875 11.4998 0.6875ZM11.4998 13.7083C8.62484 13.7083 6.2915 11.375 6.2915 8.5C6.2915 5.625 8.62484 3.29167 11.4998 3.29167C14.3748 3.29167 16.7082 5.625 16.7082 8.5C16.7082 11.375 14.3748 13.7083 11.4998 13.7083ZM11.4998 5.375C9.77067 5.375 8.37484 6.77083 8.37484 8.5C8.37484 10.2292 9.77067 11.625 11.4998 11.625C13.229 11.625 14.6248 10.2292 14.6248 8.5C14.6248 6.77083 13.229 5.375 11.4998 5.375Z" fill="black" fill-opacity="0.8"/>
</svg>
